# xmcd
#
# Track frame offsets: 
#        150
#        15135
#        29587
#        42765
#        55427
#        69337
#        83754
#        97650
#        108587
#        123092
#        136742
#        150495
#        164565
#        178007
#        191935
#        206595
#        220155
#        234442
#        249825
#        264850
#        279167
#
# Disc length: 3898 seconds
#
# Revision: 1
# Processed by: cddbd v1.5.2PL0 Copyright (c) Steve Scherf et al.
# Submitted via: ExactAudioCopyFreeDBPlugin 1.0
#
DISCID=0d0f3815
DTITLE=Various Artist - You'd Be So Nice To Come Home To Disc 2
DYEAR=1995
DGENRE=Big Band
TTITLE0=Frank Sinatra - The Things We Did Last Summer
TTITLE1=Dinah Shore - Candy
TTITLE2=Frankie Laine - We'll Be Together Again
TTITLE3=Margaret Whiting - There Goes That Song Again
TTITLE4=Mildred Bailey - I'll Close My Eyes
TTITLE5=Ella Fitzgerald and The Inkspots - I'm Making Believe
TTITLE6=Connie Boswell - Amapola (Pretty Little Poppy)
TTITLE7=Bing Crosby - When My Dreamboat Comes Home
TTITLE8=Marion Hutton - I'm Gonna Love That Guy
TTITLE9=Nat "King" Cole - Baby, Baby All The Time
TTITLE10=Artie Shaw - Time On My Hands 
TTITLE11=Ginny Simms - This Is Always
TTITLE12=Woody Herman and Frances Wayne - The Music Stopped 
TTITLE13=Dick Haymes - The More I See You
TTITLE14=Les Brown and Doris Day - Sooner Or Later
TTITLE15=Mills Brothers - I'll Be Around
TTITLE16=Benny Goodman& Liza Morrow - My Guy's Come Back
TTITLE17=Claude Thornhill and Fran Warren - For Heaven's Sake
TTITLE18=Vaughn Monroe - Love On A Greyhound Bus
TTITLE19=Jo Stafford - How Sweet You Are
TTITLE20=Guy Lombardo - Seems Like Old Time
EXTD=YEAR: 1995
EXTT0=
EXTT1=
EXTT2=
EXTT3=
EXTT4=
EXTT5=
EXTT6=
EXTT7=
EXTT8=
EXTT9=
EXTT10=
EXTT11=
EXTT12=
EXTT13=
EXTT14=
EXTT15=
EXTT16=
EXTT17=
EXTT18=
EXTT19=
EXTT20=
PLAYORDER=
